<svg width="16" height="15" viewBox="0 0 16 15" fill="none" xmlns="http://www.w3.org/2000/svg">
<path d="M6.50002 11H7.00002C7.00002 10.7431 6.80537 10.528 6.54977 10.5025L6.50002 11ZM6.50002 14H6.00002C6.00002 14.1776 6.09426 14.3419 6.2476 14.4316C6.40093 14.5213 6.59033 14.5229 6.74515 14.4358L6.50002 14ZM10.5 0.5L10.7236 0.0527864C10.6542 0.0180725 10.5776 0 10.5 0V0.5ZM6.00002 0.5V0C5.97002 0 5.94009 0.00269923 5.91058 0.00806504L6.00002 0.5ZM1.00002 6L1.49696 5.94478L1.00002 6ZM6.74515 14.4358C8.09336 13.6774 10.1166 12.4134 11.8094 11.0803C12.6545 10.4148 13.433 9.71985 14.0049 9.0517C14.556 8.40784 15 7.69338 15 7H14C14 7.30662 13.7774 7.77966 13.2452 8.40142C12.7338 8.9989 12.0122 9.64773 11.1907 10.2947C9.55013 11.5866 7.57334 12.8226 6.25489 13.5642L6.74515 14.4358ZM15 7C15 6.70343 15.0148 6.41904 15.0323 6.13623C15.0494 5.85807 15.0698 5.57211 15.0779 5.29595C15.0943 4.73792 15.0638 4.16286 14.8432 3.57444C14.3982 2.38789 13.2474 1.31467 10.7236 0.0527864L10.2764 0.947214C12.7526 2.18533 13.6018 3.11211 13.9068 3.92556C14.0612 4.33714 14.0932 4.76208 14.0784 5.26655C14.0709 5.52164 14.0522 5.78255 14.0342 6.07471C14.0164 6.36221 14 6.67157 14 7H15ZM10.5 0H6.00002V1H10.5V0ZM5.91058 0.00806504C4.93249 0.185898 3.49683 0.688611 2.34435 1.63929C1.17446 2.60434 0.280386 4.05099 0.503078 6.05522L1.49696 5.94478C1.31965 4.34901 2.00891 3.21233 2.98069 2.41071C3.96988 1.59472 5.23421 1.14744 6.08946 0.991935L5.91058 0.00806504ZM6.00002 11V14H7.00002V11H6.00002ZM0.503078 6.05522C0.776962 8.52018 2.2964 9.8923 3.70552 10.6304C4.40683 10.9978 5.08771 11.2132 5.59156 11.3371C5.8443 11.3992 6.05467 11.4389 6.2037 11.4632C6.27828 11.4754 6.33766 11.4837 6.3795 11.4891C6.40042 11.4919 6.41698 11.4938 6.42886 11.4952C6.43481 11.4959 6.43959 11.4964 6.44317 11.4968C6.44496 11.497 6.44645 11.4971 6.44763 11.4972C6.44822 11.4973 6.44874 11.4974 6.44918 11.4974C6.4494 11.4974 6.44967 11.4975 6.44978 11.4975C6.45003 11.4975 6.45027 11.4975 6.50002 11C6.54977 10.5025 6.54997 10.5025 6.55014 10.5025C6.55018 10.5025 6.55033 10.5025 6.5504 10.5025C6.55054 10.5026 6.5506 10.5026 6.55058 10.5026C6.55056 10.5026 6.55023 10.5025 6.54962 10.5025C6.54839 10.5023 6.54599 10.5021 6.54246 10.5017C6.53539 10.5009 6.52381 10.4995 6.50799 10.4974C6.47635 10.4933 6.42782 10.4865 6.3647 10.4762C6.23833 10.4556 6.05418 10.4211 5.83035 10.366C5.38108 10.2556 4.78071 10.0647 4.16952 9.74458C2.95364 9.1077 1.72308 7.97982 1.49696 5.94478L0.503078 6.05522Z" fill="#8996A2"/>
</svg>
