<svg width="18" height="12" viewBox="0 0 18 12" fill="none" xmlns="http://www.w3.org/2000/svg">
<path d="M8 0.5C7.72386 0.5 7.5 0.723858 7.5 1C7.5 1.27614 7.72386 1.5 8 1.5V0.5ZM13 1L13.1213 0.514929L13.0616 0.5H13V1ZM14.5 10.5C14.5 10.7761 14.7239 11 15 11C15.2761 11 15.5 10.7761 15.5 10.5H14.5ZM8 1.5H13V0.5H8V1.5ZM12.8787 1.48507C13.1785 1.56001 13.6279 1.71869 13.9896 1.93935C14.3892 2.18309 14.5 2.38684 14.5 2.5H15.5C15.5 1.81316 14.9441 1.35024 14.5104 1.08565C14.0388 0.797977 13.4882 0.606662 13.1213 0.514929L12.8787 1.48507ZM14.5 2.5V10.5H15.5V2.5H14.5Z" fill="#8996A2"/>
<path d="M12.5 9.5L15 11.5L17.5 9.5" stroke="#8996A2" stroke-linecap="round" stroke-linejoin="round"/>
<path d="M10.5 12C10.7761 12 11 11.7761 11 11.5C11 11.2239 10.7761 11 10.5 11V12ZM5.5 11.5L5.37873 11.9851L5.43845 12H5.5V11.5ZM4 2C4 1.72386 3.77614 1.5 3.5 1.5C3.22386 1.5 3 1.72386 3 2L4 2ZM10.5 11H5.5V12H10.5V11ZM5.62127 11.0149C5.32153 10.94 4.87212 10.7813 4.51038 10.5606C4.1108 10.3169 4 10.1132 4 10H3C3 10.6868 3.55587 11.1498 3.98962 11.4144C4.46121 11.702 5.0118 11.8933 5.37873 11.9851L5.62127 11.0149ZM4 10L4 2L3 2L3 10H4Z" fill="#8996A2"/>
<path d="M6 3L3.5 1L1 3" stroke="#8996A2" stroke-linecap="round" stroke-linejoin="round"/>
</svg>
